<svg width="20" height="20" viewBox="0 0 20 20" fill="none" xmlns="http://www.w3.org/2000/svg">
<path fill-rule="evenodd" clip-rule="evenodd" d="M9.85335 0C10.6472 0 11.3576 0.254598 12.1239 0.68457C12.8661 1.10114 13.7166 1.71604 14.786 2.48926L16.1698 3.48926C17.0282 4.10995 17.7141 4.6056 18.2313 5.06445C18.7653 5.53824 19.1644 6.01134 19.4178 6.60547C19.6716 7.20079 19.7331 7.81111 19.6991 8.51465C19.6662 9.19361 19.5406 10.0128 19.3836 11.0342L19.0946 12.915C18.8715 14.3668 18.6934 15.5232 18.4325 16.4238C18.1626 17.3549 17.7827 18.0941 17.1034 18.6592C16.4267 19.222 15.6202 19.4732 14.6356 19.5928C13.6778 19.7091 12.4692 19.709 10.9432 19.709H8.76351C7.23749 19.709 6.0289 19.7091 5.07113 19.5928C4.08666 19.4732 3.2809 19.2219 2.60433 18.6592C1.9249 18.0941 1.54411 17.355 1.27425 16.4238C1.01328 15.5232 0.836203 14.3668 0.613118 12.915L0.324055 11.0342C0.167081 10.0128 0.0415206 9.19361 0.0086256 8.51465C-0.0254373 7.81108 0.0360025 7.20082 0.289876 6.60547C0.54328 6.01134 0.942402 5.53824 1.4764 5.06445C1.99355 4.60563 2.67952 4.1099 3.53792 3.48926L4.92073 2.48926C5.99036 1.71587 6.84146 1.10118 7.58382 0.68457C8.34992 0.254666 9.05961 8.09391e-05 9.85335 0ZM9.85335 1.375C9.37959 1.37508 8.90595 1.51848 8.25667 1.88281C7.59127 2.25621 6.80389 2.82415 5.69222 3.62793L4.37288 4.58301C3.47853 5.22965 2.84827 5.68583 2.38851 6.09375C1.94004 6.49173 1.69918 6.80539 1.55452 7.14453C1.41037 7.48251 1.35347 7.86566 1.38167 8.44824C1.4107 9.04719 1.52439 9.79563 1.68831 10.8623L1.96468 12.6582C2.19684 14.1689 2.36238 15.2364 2.59554 16.041C2.82268 16.8248 3.09217 17.2773 3.48323 17.6025C3.87713 17.9301 4.38915 18.1245 5.23714 18.2275C6.1024 18.3326 7.22725 18.334 8.80941 18.334H10.8973C12.4797 18.334 13.6052 18.3326 14.4705 18.2275C15.3185 18.1245 15.8306 17.9301 16.2244 17.6025C16.6155 17.2773 16.885 16.8248 17.1121 16.041C17.3453 15.2364 17.5108 14.1689 17.743 12.6582L18.0184 10.8623C18.1823 9.79557 18.297 9.04721 18.326 8.44824C18.3542 7.86568 18.2973 7.48251 18.1532 7.14453C18.0085 6.80526 17.767 6.49192 17.3182 6.09375C16.8585 5.68585 16.2291 5.2296 15.3348 4.58301L14.0155 3.62793C12.9038 2.82418 12.1164 2.25621 11.451 1.88281C10.8015 1.51834 10.3273 1.375 9.85335 1.375ZM12.1815 13.8955C12.4811 13.6623 12.9131 13.716 13.1463 14.0156C13.3794 14.3152 13.3258 14.7473 13.0262 14.9805C12.1704 15.6466 11.0579 16.042 9.85335 16.042C8.64896 16.0419 7.53716 15.6465 6.68148 14.9805C6.38186 14.7472 6.32814 14.3152 6.56136 14.0156C6.79459 13.716 7.22658 13.6623 7.5262 13.8955C8.1361 14.3702 8.94942 14.6669 9.85335 14.667C10.7575 14.667 11.5715 14.3703 12.1815 13.8955Z" fill="#999999"/>
</svg>
