<svg width="20" height="20" viewBox="0 0 20 20" fill="none" xmlns="http://www.w3.org/2000/svg">
<path fill-rule="evenodd" clip-rule="evenodd" d="M0 10C0 5.28595 0 2.92893 1.46447 1.46447C2.92893 0 5.28595 0 10 0C14.714 0 17.0711 0 18.5355 1.46447C20 2.92893 20 5.28595 20 10C20 14.714 20 17.0711 18.5355 18.5355C17.0711 20 14.714 20 10 20C5.28595 20 2.92893 20 1.46447 18.5355C0 17.0711 0 14.714 0 10ZM8.00398 3.7517C8.41818 3.7495 8.75219 3.41194 8.74999 2.99773C8.74779 2.58353 8.41023 2.24952 7.99602 2.25172C6.91427 2.25745 6.01583 2.28215 5.28261 2.41042C4.53075 2.54195 3.88786 2.79244 3.36144 3.29379C2.90634 3.72721 2.60191 4.16616 2.43626 4.79676C2.28612 5.36833 2.25937 6.07154 2.25231 6.99426C2.24914 7.40846 2.58234 7.74681 2.99654 7.74998C3.41074 7.75315 3.74909 7.41994 3.75226 7.00574C3.75952 6.05697 3.79204 5.53952 3.88704 5.17786C3.96654 4.87522 4.09314 4.66836 4.39592 4.38C4.63788 4.14955 4.96814 3.98821 5.54109 3.88798C6.13268 3.78449 6.91071 3.75749 8.00398 3.7517ZM12.0041 2.25172C11.5899 2.24952 11.2523 2.58352 11.2501 2.99773C11.2479 3.41194 11.5819 3.7495 11.9961 3.7517C13.0894 3.7575 13.8674 3.78449 14.4589 3.88799C15.0319 3.98822 15.3621 4.14956 15.6041 4.37999C15.9069 4.66835 16.0335 4.87522 16.113 5.17786C16.208 5.53952 16.2405 6.05697 16.2477 7.00574C16.2509 7.41994 16.5893 7.75315 17.0035 7.74998C17.4177 7.74681 17.7509 7.40846 17.7477 6.99426C17.7406 6.07154 17.7139 5.36833 17.5637 4.79676C17.3981 4.16616 17.0937 3.72721 16.6386 3.29379C16.1121 2.79244 15.4693 2.54196 14.7174 2.41043C13.9842 2.28216 13.0858 2.25746 12.0041 2.25172ZM3 9.25005C2.58579 9.25005 2.25 9.58584 2.25 10.0001C2.25 10.4143 2.58579 10.7501 3 10.7501H17C17.4142 10.7501 17.75 10.4143 17.75 10.0001C17.75 9.58584 17.4142 9.25005 17 9.25005H3ZM3.75226 12.9944C3.74909 12.5802 3.41074 12.247 2.99654 12.2501C2.58234 12.2533 2.24914 12.5916 2.25231 13.0058C2.25937 13.9286 2.28612 14.6318 2.43626 15.2034C2.60191 15.8339 2.90634 16.2729 3.36144 16.7063C3.88785 17.2077 4.53073 17.4581 5.28258 17.5897C6.01578 17.718 6.91421 17.7427 7.99593 17.7484C8.41014 17.7506 8.74771 17.4166 8.7499 17.0024C8.7521 16.5882 8.4181 16.2506 8.00389 16.2484C6.91065 16.2426 6.13264 16.2156 5.54107 16.1121C4.96814 16.0119 4.63788 15.8506 4.39592 15.6201C4.09314 15.3318 3.96654 15.1249 3.88704 14.8223C3.79204 14.4606 3.75952 13.9431 3.75226 12.9944ZM17.7477 13.0058C17.7509 12.5916 17.4177 12.2533 17.0035 12.2501C16.5893 12.247 16.2509 12.5802 16.2477 12.9944C16.2405 13.9431 16.208 14.4606 16.113 14.8223C16.0335 15.1249 15.9069 15.3318 15.6041 15.6201C15.3621 15.8506 15.0319 16.0119 14.4589 16.1121C13.8674 16.2156 13.0894 16.2426 11.9961 16.2484C11.5819 16.2506 11.2479 16.5882 11.2501 17.0024C11.2523 17.4166 11.5899 17.7506 12.0041 17.7484C13.0858 17.7427 13.9842 17.718 14.7174 17.5897C15.4693 17.4581 16.1121 17.2077 16.6386 16.7063C17.0937 16.2729 17.3981 15.8339 17.5637 15.2034C17.7139 14.6318 17.7406 13.9286 17.7477 13.0058Z" fill="#315EA1"/>
</svg>
