<svg width="32" height="32" viewBox="0 0 32 32" fill="none" xmlns="http://www.w3.org/2000/svg">
<path d="M0 16C0 7.16344 7.16344 0 16 0C24.8366 0 32 7.16344 32 16C32 24.8366 24.8366 32 16 32C7.16344 32 0 24.8366 0 16Z" fill="#EFF0FE"/>
<path d="M10.9258 13.5747C12.375 12.4481 13.1742 11.8268 14.0547 12.2046C14.9566 12.5999 14.957 13.5858 14.957 15.3735V15.3745H22.667C23.0119 15.3747 23.2917 15.6547 23.292 15.9995C23.292 16.3446 23.012 16.6243 22.667 16.6245H14.957C14.957 18.4118 14.9564 19.3977 14.0596 19.7905C13.1741 20.1707 12.3758 19.5496 10.9268 18.4243L10.124 17.7974C9.24228 17.1167 8.70996 16.7039 8.70996 15.9985C8.71005 15.2933 9.24215 14.8805 10.125 14.1987L10.9258 13.5747ZM13.5498 13.3306C13.3592 13.2506 12.4769 13.9353 11.6992 14.5405L10.8984 15.1646C10.8984 15.1646 10.8967 15.1643 10.8955 15.1655C10.4952 15.4752 9.99668 15.8619 9.95801 15.9995V16.0015C9.99642 16.134 10.4951 16.5189 10.8955 16.8286L11.7002 17.4556C12.478 18.0609 13.36 18.7466 13.5566 18.6626C13.7069 18.5081 13.707 17.5071 13.707 16.6226V15.3726C13.707 14.4893 13.7063 13.4877 13.5498 13.3306Z" fill="#1C1C1C"/>
</svg>
