<svg width="20" height="20" viewBox="0 0 20 20" fill="none" xmlns="http://www.w3.org/2000/svg">
<path d="M10.0002 18.5417C9.31692 18.5417 8.63358 18.325 8.06691 17.9L3.72525 14.65C2.91692 14.0417 2.43359 13.075 2.43359 12.0667V1.46667H17.5669V12.0667C17.5669 13.075 17.0836 14.0417 16.2752 14.65L11.9336 17.9C11.3669 18.325 10.6836 18.5417 10.0002 18.5417ZM3.68359 2.70835V12.0583C3.68359 12.675 3.98358 13.2667 4.47525 13.6417L8.81691 16.8917C9.5169 17.4167 10.4919 17.4167 11.1919 16.8917L15.5336 13.6417C16.0253 13.2667 16.3252 12.675 16.3252 12.0583V2.70835H3.68359Z" fill="#2A2A28"/>
<path d="M18.3337 2.70837H1.66699C1.32533 2.70837 1.04199 2.42504 1.04199 2.08337C1.04199 1.74171 1.32533 1.45837 1.66699 1.45837H18.3337C18.6753 1.45837 18.9587 1.74171 18.9587 2.08337C18.9587 2.42504 18.6753 2.70837 18.3337 2.70837Z" fill="#2A2A28"/>
<path d="M13.3337 7.29163H6.66699C6.32533 7.29163 6.04199 7.00829 6.04199 6.66663C6.04199 6.32496 6.32533 6.04163 6.66699 6.04163H13.3337C13.6753 6.04163 13.9587 6.32496 13.9587 6.66663C13.9587 7.00829 13.6753 7.29163 13.3337 7.29163Z" fill="#2A2A28"/>
<path d="M13.3337 11.4584H6.66699C6.32533 11.4584 6.04199 11.175 6.04199 10.8334C6.04199 10.4917 6.32533 10.2084 6.66699 10.2084H13.3337C13.6753 10.2084 13.9587 10.4917 13.9587 10.8334C13.9587 11.175 13.6753 11.4584 13.3337 11.4584Z" fill="#2A2A28"/>
</svg>
