<svg width="32" height="32" viewBox="0 0 32 32" fill="none" xmlns="http://www.w3.org/2000/svg">
<path d="M0 16C0 7.16344 7.16344 0 16 0C24.8366 0 32 7.16344 32 16C32 24.8366 24.8366 32 16 32C7.16344 32 0 24.8366 0 16Z" fill="#FAF9EC"/>
<path d="M16 7.9375C18.1746 7.9375 19.9375 9.70038 19.9375 11.875V13.9746C21.0902 15.0368 21.8125 16.559 21.8125 18.25C21.8125 21.4602 19.2102 24.0625 16 24.0625C12.7898 24.0625 10.1875 21.4602 10.1875 18.25C10.1875 16.559 10.9098 15.0368 12.0625 13.9746V11.875C12.0625 9.70038 13.8254 7.9375 16 7.9375ZM16 13.5625C13.4112 13.5625 11.3125 15.6612 11.3125 18.25C11.3125 20.8388 13.4112 22.9375 16 22.9375C18.5888 22.9375 20.6875 20.8388 20.6875 18.25C20.6875 15.6612 18.5888 13.5625 16 13.5625ZM16 16.9375C16.3107 16.9375 16.5625 17.1893 16.5625 17.5V19C16.5625 19.3107 16.3107 19.5625 16 19.5625C15.6893 19.5625 15.4375 19.3107 15.4375 19V17.5C15.4375 17.1893 15.6893 16.9375 16 16.9375ZM16 9.0625C14.4467 9.0625 13.1875 10.3217 13.1875 11.875V13.1621C14.0209 12.7004 14.9798 12.4375 16 12.4375C17.0202 12.4375 17.9791 12.7004 18.8125 13.1621V11.875C18.8125 10.3217 17.5533 9.0625 16 9.0625Z" fill="#A77B27"/>
</svg>
