<svg width="32" height="32" viewBox="0 0 32 32" fill="none" xmlns="http://www.w3.org/2000/svg">
<path d="M0 16C0 7.16344 7.16344 0 16 0C24.8366 0 32 7.16344 32 16C32 24.8366 24.8366 32 16 32C7.16344 32 0 24.8366 0 16Z" fill="#FAF9EC"/>
<path d="M13.8096 9.09082C15.2833 9.05332 16.7158 9.05332 18.1895 9.09082C20.6178 9.15232 21.9557 9.18683 22.9629 10.1924C23.9716 11.2086 23.9996 12.5114 24.0498 14.876C24.0656 15.6312 24.0656 16.3649 24.0498 17.1201C23.9996 19.4847 23.9721 20.787 22.9658 21.8018C21.9571 22.8097 20.6188 22.8438 18.1904 22.9053C17.4539 22.924 16.7268 22.9336 16 22.9336C15.2734 22.9336 14.5469 22.924 13.8105 22.9053C11.3821 22.8438 10.0434 22.8094 9.03613 21.8037C8.02738 20.7875 7.99947 19.4839 7.94922 17.1191C7.93348 16.3642 7.93348 15.6309 7.94922 14.876C7.99947 12.5113 8.02781 11.2091 9.03418 10.1943C10.0429 9.18634 11.3811 9.15232 13.8096 9.09082ZM18.1611 10.2139C16.7069 10.1764 15.2929 10.1764 13.8379 10.2139C11.5597 10.2716 10.5203 10.2984 9.83105 10.9873C9.14259 11.6818 9.12071 12.6899 9.07422 14.8984C9.05847 15.6372 9.05847 16.3562 9.07422 17.0957C9.12071 19.3041 9.14247 20.3126 9.83301 21.0078C10.5208 21.6948 11.5604 21.7225 13.8389 21.7803C15.2931 21.8178 16.7072 21.8178 18.1621 21.7803C20.4403 21.7225 21.4797 21.696 22.1689 21.0068C22.8574 20.3124 22.8793 19.3043 22.9258 17.0957C22.9415 16.357 22.9415 15.6379 22.9258 14.8984C22.8793 12.6902 22.8574 11.6815 22.167 10.9863C21.4793 10.2993 20.4395 10.2716 18.1611 10.2139ZM11.7666 13.083C11.9248 12.8162 12.2692 12.7269 12.5361 12.8848L14.7432 14.1904C15.8469 14.8405 16.1534 14.8406 17.2588 14.1904L19.4639 12.8857C19.7316 12.7275 20.0769 12.8162 20.2344 13.084C20.3925 13.3517 20.3038 13.696 20.0361 13.8535L17.8301 15.1592C17.0944 15.5927 16.5475 15.8086 16 15.8086C15.4533 15.8086 14.9067 15.5918 14.1719 15.1592L11.9639 13.8535C11.697 13.6952 11.6084 13.3499 11.7666 13.083Z" fill="#A77B27"/>
</svg>
