<svg width="24" height="24" viewBox="0 0 24 24" fill="none" xmlns="http://www.w3.org/2000/svg">
<path d="M2 0.5H22C22.8284 0.5 23.5 1.17157 23.5 2V22C23.5 22.8284 22.8284 23.5 22 23.5H2C1.17157 23.5 0.5 22.8284 0.5 22V2C0.5 1.17157 1.17157 0.5 2 0.5Z" fill="#6C5CE7"/>
<path d="M2 0.5H22C22.8284 0.5 23.5 1.17157 23.5 2V22C23.5 22.8284 22.8284 23.5 22 23.5H2C1.17157 23.5 0.5 22.8284 0.5 22V2C0.5 1.17157 1.17157 0.5 2 0.5Z" stroke="#6C5CE7"/>
<path fill-rule="evenodd" clip-rule="evenodd" d="M17.1273 7.85093C17.3936 8.10516 17.4035 8.52716 17.1492 8.79349L10.1492 16.1268C10.0253 16.2567 9.85423 16.331 9.67474 16.3331C9.49526 16.3352 9.32251 16.2648 9.19559 16.1379L6.86225 13.8046C6.6019 13.5442 6.6019 13.1221 6.86225 12.8618C7.1226 12.6014 7.54471 12.6014 7.80506 12.8618L9.6559 14.7126L16.1848 7.87285C16.439 7.60652 16.861 7.59671 17.1273 7.85093Z" fill="white"/>
</svg>
