<svg width="18" height="18" viewBox="0 0 18 18" fill="none" xmlns="http://www.w3.org/2000/svg">
<path d="M15 6.3125V6.25C15 4.5924 14.3415 3.00269 13.1694 1.83058C11.9973 0.65848 10.4076 0 8.75 0C7.0924 0 5.50269 0.65848 4.33058 1.83058C3.15848 3.00269 2.5 4.5924 2.5 6.25V6.3125C1.79463 6.45756 1.16084 6.84136 0.705449 7.39922C0.250056 7.95707 0.000909078 8.65487 0 9.375V10C0.000992411 10.8285 0.330551 11.6228 0.916387 12.2086C1.50222 12.7944 2.2965 13.124 3.125 13.125H4.375C4.70652 13.125 5.02446 12.9933 5.25888 12.7589C5.4933 12.5245 5.625 12.2065 5.625 11.875V7.5C5.625 7.16848 5.4933 6.85054 5.25888 6.61612C5.02446 6.3817 4.70652 6.25 4.375 6.25H3.75C3.75 4.92392 4.27678 3.65215 5.21447 2.71447C6.15215 1.77678 7.42392 1.25 8.75 1.25C10.0761 1.25 11.3479 1.77678 12.2855 2.71447C13.2232 3.65215 13.75 4.92392 13.75 6.25H13.125C12.7935 6.25 12.4755 6.3817 12.2411 6.61612C12.0067 6.85054 11.875 7.16848 11.875 7.5V11.875C11.875 12.2065 12.0067 12.5245 12.2411 12.7589C12.4755 12.9933 12.7935 13.125 13.125 13.125H13.75V14.375C13.75 14.5408 13.6842 14.6997 13.5669 14.8169C13.4497 14.9342 13.2908 15 13.125 15H11.135C11.0062 14.6357 10.768 14.3201 10.4529 14.0963C10.1379 13.8726 9.76141 13.7516 9.375 13.75H8.125C7.62772 13.75 7.15081 13.9475 6.79917 14.2992C6.44754 14.6508 6.25 15.1277 6.25 15.625C6.25 16.1223 6.44754 16.5992 6.79917 16.9508C7.15081 17.3025 7.62772 17.5 8.125 17.5H9.375C9.76141 17.4984 10.1379 17.3774 10.4529 17.1537C10.768 16.9299 11.0062 16.6143 11.135 16.25H13.125C13.6223 16.25 14.0992 16.0525 14.4508 15.7008C14.8025 15.3492 15 14.8723 15 14.375V13.125C14.9971 13.1039 14.9929 13.0831 14.9875 13.0625C15.6953 12.9202 16.3321 12.5375 16.79 11.9794C17.2479 11.4212 17.4987 10.7219 17.5 10V9.375C17.4991 8.65487 17.2499 7.95707 16.7946 7.39922C16.3392 6.84136 15.7054 6.45756 15 6.3125ZM4.375 7.5V11.875H3.125C2.62772 11.875 2.15081 11.6775 1.79917 11.3258C1.44754 10.9742 1.25 10.4973 1.25 10V9.375C1.25 8.87772 1.44754 8.40081 1.79917 8.04917C2.15081 7.69754 2.62772 7.5 3.125 7.5H4.375ZM9.375 16.25H8.125C7.95924 16.25 7.80027 16.1842 7.68306 16.0669C7.56585 15.9497 7.5 15.7908 7.5 15.625C7.5 15.4592 7.56585 15.3003 7.68306 15.1831C7.80027 15.0658 7.95924 15 8.125 15H9.375C9.54076 15 9.69973 15.0658 9.81694 15.1831C9.93415 15.3003 10 15.4592 10 15.625C10 15.7908 9.93415 15.9497 9.81694 16.0669C9.69973 16.1842 9.54076 16.25 9.375 16.25ZM16.25 10C16.25 10.4973 16.0525 10.9742 15.7008 11.3258C15.3492 11.6775 14.8723 11.875 14.375 11.875H13.125V7.5H14.375C14.8723 7.5 15.3492 7.69754 15.7008 8.04917C16.0525 8.40081 16.25 8.87772 16.25 9.375V10Z" fill="#1A1A1A"/>
</svg>
