<svg width="20" height="20" viewBox="0 0 20 20" fill="none" xmlns="http://www.w3.org/2000/svg">
<path opacity="0.5" fill-rule="evenodd" clip-rule="evenodd" d="M12.3247 15.8125C7.08108 17.9099 4.45927 18.9586 2.96174 17.941C2.60667 17.6997 2.30043 17.3935 2.05914 17.0384C1.04151 15.5409 2.09024 12.9191 4.18769 7.67546C4.63507 6.55701 4.85876 5.99778 5.24348 5.55906C5.34152 5.44727 5.44678 5.34201 5.55857 5.24397C5.99729 4.85925 6.55652 4.63555 7.67498 4.18817C12.9186 2.09073 15.5404 1.042 17.0379 2.05963C17.393 2.30091 17.6992 2.60716 17.9405 2.96222C18.9582 4.45976 17.9094 7.08157 15.812 12.3252C15.3646 13.4436 15.1409 14.0029 14.7562 14.4416C14.6582 14.5534 14.5529 14.6586 14.4411 14.7567C14.0024 15.1414 13.4431 15.3651 12.3247 15.8125Z" fill="#315EA1"/>
<path d="M10 6.875C8.27411 6.875 6.875 8.27411 6.875 10C6.875 11.7259 8.27411 13.125 10 13.125C11.7259 13.125 13.125 11.7259 13.125 10C13.125 8.27411 11.7259 6.875 10 6.875Z" fill="#315EA1"/>
</svg>
