<svg width="32" height="32" viewBox="0 0 32 32" fill="none" xmlns="http://www.w3.org/2000/svg">
<path d="M0 16C0 7.16344 7.16344 0 16 0C24.8366 0 32 7.16344 32 16C32 24.8366 24.8366 32 16 32C7.16344 32 0 24.8366 0 16Z" fill="#FEF3F2"/>
<path d="M16.0547 7.04199C16.4654 7.04198 16.8148 7.04147 17.1045 7.06738C17.4118 7.0949 17.6983 7.15452 17.9766 7.29883C18.0866 7.35594 18.1926 7.42195 18.292 7.49609C18.5435 7.68369 18.722 7.91595 18.8809 8.18066C19.0305 8.43003 19.1822 8.74382 19.3613 9.11328L19.7715 9.95801H23.5C23.8451 9.95801 24.1248 10.238 24.125 10.583C24.125 10.9282 23.8452 11.208 23.5 11.208H22.8379L22.3555 19.0088C22.2912 20.0483 22.2402 20.8732 22.1357 21.5322C22.0285 22.208 21.8568 22.7714 21.5137 23.2637C21.1996 23.7141 20.7951 24.0951 20.3262 24.3809C19.8136 24.6931 19.2408 24.8292 18.5596 24.8945C17.8952 24.9582 17.0682 24.958 16.0264 24.958H15.9619C14.9189 24.958 14.0909 24.9583 13.4258 24.8945C12.7437 24.8291 12.1702 24.6918 11.6572 24.3789C11.188 24.0927 10.7827 23.7119 10.4688 23.2607C10.1258 22.7677 9.95503 22.204 9.84863 21.5273C9.74485 20.8672 9.6947 20.0404 9.63184 18.999L9.16113 11.208H8.5C8.15482 11.208 7.875 10.9282 7.875 10.583C7.87518 10.238 8.15493 9.95801 8.5 9.95801H12.3086L12.6582 9.19238C12.8328 8.80929 12.9805 8.48408 13.1279 8.22559C13.2844 7.95126 13.4622 7.70996 13.7168 7.51465C13.8173 7.43756 13.9243 7.36902 14.0361 7.30957C14.3193 7.15901 14.6123 7.097 14.9268 7.06836C15.2232 7.04138 15.5809 7.04198 16.002 7.04199H16.0547ZM10.8779 18.8916C10.9432 19.9725 10.9896 20.7391 11.083 21.333C11.1748 21.9168 11.3036 22.2716 11.4951 22.5469C11.7099 22.8556 11.9866 23.1167 12.3076 23.3125C12.594 23.4872 12.9565 23.5939 13.5449 23.6504C14.1434 23.7078 14.9114 23.708 15.9941 23.708C17.0755 23.708 17.8427 23.7077 18.4404 23.6504C19.0278 23.594 19.3897 23.4868 19.6758 23.3125C19.9965 23.117 20.2735 22.8569 20.4883 22.5488C20.6798 22.274 20.8089 21.9197 20.9014 21.3369C20.9954 20.7439 21.0427 19.9786 21.1094 18.8994L21.585 11.208H10.4141L10.8779 18.8916ZM17.25 18.4199C17.5951 18.4199 17.8748 18.6999 17.875 19.0449C17.875 19.3901 17.5952 19.6699 17.25 19.6699H14.75C14.4048 19.6699 14.125 19.3901 14.125 19.0449C14.1252 18.6999 14.4049 18.4199 14.75 18.4199H17.25ZM18.5 15.1543C18.8452 15.1543 19.125 15.4341 19.125 15.7793C19.1249 16.1244 18.8451 16.4043 18.5 16.4043H13.5C13.1549 16.4043 12.8751 16.1244 12.875 15.7793C12.875 15.4341 13.1548 15.1543 13.5 15.1543H18.5ZM16.0283 8.29199C15.5732 8.29199 15.273 8.29226 15.04 8.31348C14.819 8.33362 14.7066 8.36963 14.623 8.41406C14.5723 8.44107 14.5232 8.47184 14.4775 8.50684C14.4025 8.56444 14.3237 8.65221 14.2139 8.84473C14.0979 9.04799 13.973 9.32109 13.7842 9.73535L13.6826 9.95801H18.3818L18.248 9.68262C18.0543 9.28293 17.9261 9.02004 17.8086 8.82422C17.6971 8.63844 17.6183 8.55352 17.5439 8.49805C17.499 8.46452 17.4512 8.43503 17.4014 8.40918C17.319 8.36644 17.208 8.3318 16.9922 8.3125C16.7648 8.2922 16.4722 8.29199 16.0283 8.29199Z" fill="#D92D20"/>
</svg>
