<svg width="32" height="32" viewBox="0 0 32 32" fill="none" xmlns="http://www.w3.org/2000/svg">
<path d="M0 16C0 7.16344 7.16344 0 16 0C24.8366 0 32 7.16344 32 16C32 24.8366 24.8366 32 16 32C7.16344 32 0 24.8366 0 16Z" fill="#FEF3F2"/>
<path fill-rule="evenodd" clip-rule="evenodd" d="M9.72505 9.72456C9.96913 9.48048 10.3649 9.48048 10.6089 9.72456L16.0003 15.116L21.3917 9.72456C21.6358 9.48048 22.0315 9.48048 22.2756 9.72456C22.5197 9.96864 22.5197 10.3644 22.2756 10.6084L16.8842 15.9998L22.2756 21.3912C22.5197 21.6353 22.5197 22.031 22.2756 22.2751C22.0315 22.5192 21.6358 22.5192 21.3917 22.2751L16.0003 16.8837L10.6089 22.2751C10.3649 22.5192 9.96913 22.5192 9.72505 22.2751C9.48097 22.031 9.48097 21.6353 9.72505 21.3912L15.1164 15.9998L9.72505 10.6084C9.48097 10.3644 9.48097 9.96864 9.72505 9.72456Z" fill="#D92D20"/>
</svg>
