<svg width="22" height="21" viewBox="0 0 22 21" fill="none" xmlns="http://www.w3.org/2000/svg">
<path fill-rule="evenodd" clip-rule="evenodd" d="M15.8913 0.1238C14.967 -3.41535e-05 13.7902 -1.87166e-05 12.3232 4.7611e-07H9.00178C7.5348 -1.87166e-05 6.35801 -3.41535e-05 5.43371 0.1238C4.47656 0.252036 3.67853 0.525262 3.04558 1.156C2.38535 1.81393 2.11504 2.65117 1.9932 3.66009L1.98724 3.70944L1.98963 3.9048C1.77743 4.04351 1.57808 4.2044 1.39124 4.39124C0.64288 5.13961 0.310763 6.08856 0.153135 7.26098C-2.81632e-05 8.40019 -1.55332e-05 9.85582 3.21616e-07 11.6936V11.8064L7.44698e-05 12.2392C0.00105503 13.8637 0.0128686 15.1957 0.153135 16.239C0.310763 17.4114 0.64288 18.3604 1.39124 19.1088C2.13961 19.8571 3.08856 20.1892 4.26098 20.3469C5.40019 20.5 6.85583 20.5 8.69359 20.5H12.8064C14.6442 20.5 16.0998 20.5 17.239 20.3469C18.4114 20.1892 19.3604 19.8571 20.1088 19.1088C20.8571 18.3604 21.1892 17.4114 21.3469 16.239C21.5 15.0998 21.5 13.6442 21.5 11.8064V11.6936C21.5 9.85583 21.5 8.40019 21.3469 7.26098C21.1892 6.08856 20.8571 5.13961 20.1088 4.39124C19.8719 4.1544 19.615 3.95924 19.3372 3.79812V3.70488L19.3318 3.66009C19.21 2.65117 18.9397 1.81393 18.2794 1.156C17.6465 0.525262 16.8484 0.252036 15.8913 0.1238ZM1.5006 12.5899C1.50371 14.065 1.5228 15.1692 1.63976 16.0392C1.77502 17.0452 2.02869 17.6249 2.4519 18.0481C2.87511 18.4713 3.45476 18.725 4.46085 18.8602C5.48851 18.9984 6.84318 19 8.75 19H12.75C14.6568 19 16.0115 18.9984 17.0392 18.8602C17.8032 18.7575 18.3214 18.5865 18.7118 18.3248L16.0247 15.9064C15.2451 15.2047 14.084 15.1349 13.2258 15.738L12.9276 15.9475C11.8343 16.7159 10.3468 16.5871 9.40188 15.6422L5.11216 11.3524C4.53515 10.7754 3.60958 10.7446 2.99546 11.2819L1.5006 12.5899ZM17.0282 14.7915L19.6164 17.1209C19.7222 16.8247 19.8021 16.4713 19.8602 16.0392C19.9984 15.0115 20 13.6568 20 11.75C20 9.84318 19.9984 8.48851 19.8602 7.46085C19.725 6.45476 19.4713 5.87511 19.0481 5.4519C18.6249 5.02869 18.0452 4.77502 17.0392 4.63976C16.0115 4.50159 14.6568 4.5 12.75 4.5H8.75C6.84318 4.5 5.48851 4.50159 4.46085 4.63976C3.45476 4.77502 2.87511 5.02869 2.4519 5.4519C2.02869 5.87511 1.77502 6.45476 1.63976 7.46085C1.53126 8.26788 1.50698 9.27657 1.50156 10.596L2.00771 10.1531C3.21613 9.09572 5.03741 9.15636 6.17282 10.2918L10.4625 14.5815C10.8921 15.011 11.5682 15.0696 12.0652 14.7203L12.3634 14.5107C13.7937 13.5055 15.7288 13.622 17.0282 14.7915ZM4.10438 2.21852C3.86442 2.45764 3.69241 2.77039 3.57795 3.27195C3.79664 3.2239 4.02425 3.18496 4.26098 3.15314C5.40019 2.99997 6.85582 2.99998 8.69358 3H12.8064C14.6442 2.99998 16.0998 2.99997 17.239 3.15314C17.4102 3.17614 17.5765 3.20287 17.7382 3.23407C17.6238 2.75454 17.4545 2.45156 17.2206 2.21852C16.913 1.912 16.4839 1.7166 15.6921 1.61052C14.879 1.50158 13.803 1.5 12.2681 1.5H9.05689C7.52197 1.5 6.44597 1.50158 5.63289 1.61052C4.84112 1.7166 4.41198 1.912 4.10438 2.21852Z" fill="#1A1A1A"/>
<path fill-rule="evenodd" clip-rule="evenodd" d="M16.25 6C15.0074 6 14 7.00736 14 8.25C14 9.49264 15.0074 10.5 16.25 10.5C17.4926 10.5 18.5 9.49264 18.5 8.25C18.5 7.00736 17.4926 6 16.25 6ZM16.25 7.5C15.8358 7.5 15.5 7.83579 15.5 8.25C15.5 8.66422 15.8358 9 16.25 9C16.6642 9 17 8.66422 17 8.25C17 7.83579 16.6642 7.5 16.25 7.5Z" fill="#1A1A1A"/>
</svg>
