<svg width="32" height="32" viewBox="0 0 32 32" fill="none" xmlns="http://www.w3.org/2000/svg">
<path d="M0 16C0 7.16344 7.16344 0 16 0C24.8366 0 32 7.16344 32 16C32 24.8366 24.8366 32 16 32C7.16344 32 0 24.8366 0 16Z" fill="#FAF9EC"/>
<path d="M17.9053 22.3066C18.15 22.1155 18.504 22.1587 18.6953 22.4033C18.8865 22.6481 18.8432 23.0021 18.5986 23.1934C17.9004 23.7388 16.9889 24.0625 16.002 24.0625C15.015 24.0625 14.1035 23.7388 13.4053 23.1934C13.1606 23.0021 13.1174 22.6481 13.3086 22.4033C13.4999 22.1587 13.8539 22.1155 14.0986 22.3066C14.5945 22.6939 15.2602 22.9375 16.002 22.9375C16.7437 22.9375 17.4094 22.6939 17.9053 22.3066ZM16.001 7.9375C19.4108 7.9375 22.208 10.6166 22.208 13.96C22.2081 14.7302 22.2608 15.305 22.6221 15.8223C22.6882 15.9156 22.7583 16.0086 22.835 16.1104C22.8549 16.1368 22.8756 16.1636 22.8965 16.1914C22.995 16.3225 23.1017 16.467 23.2012 16.6182C23.3981 16.9177 23.5921 17.2818 23.6592 17.708C23.8783 19.1024 22.868 19.9934 21.8877 20.3877C18.406 21.7876 13.597 21.7876 10.1152 20.3877C9.13486 19.9934 8.12361 19.1024 8.34277 17.708C8.4098 17.2817 8.60483 16.9177 8.80176 16.6182C8.90118 16.467 9.00794 16.3225 9.10645 16.1914C9.12721 16.1638 9.14717 16.1366 9.16699 16.1104C9.24372 16.0086 9.31468 15.9157 9.38086 15.8223C9.74209 15.305 9.79483 14.7301 9.79492 13.96C9.79495 10.6168 12.5914 7.93773 16.001 7.9375ZM16.001 9.0625C13.1772 9.06273 10.9199 11.273 10.9199 13.96C10.9198 14.7492 10.8801 15.6409 10.3018 16.4678L10.2998 16.4707C10.2226 16.5797 10.1388 16.6902 10.0605 16.7939C10.0419 16.8187 10.0238 16.8433 10.0059 16.8672C9.90943 16.9955 9.82107 17.1164 9.74219 17.2363C9.58266 17.479 9.48508 17.6857 9.4541 17.8828C9.35432 18.5177 9.76963 19.0359 10.5352 19.3438C13.7476 20.6354 18.2554 20.6354 21.4678 19.3438C22.2333 19.0359 22.6476 18.5177 22.5479 17.8828C22.5169 17.6857 22.4202 17.4789 22.2607 17.2363C22.1819 17.1164 22.0935 16.9955 21.9971 16.8672C21.9791 16.8433 21.9611 16.8187 21.9424 16.7939C21.8642 16.6902 21.7803 16.5797 21.7031 16.4707L21.7012 16.4678C21.1228 15.6409 21.0831 14.7493 21.083 13.96C21.083 11.2728 18.825 9.0625 16.001 9.0625Z" fill="#A77B27"/>
</svg>
