<svg width="24" height="24" viewBox="0 0 24 24" fill="none" xmlns="http://www.w3.org/2000/svg">
<path d="M0 12C0 5.37258 5.37258 0 12 0C18.6274 0 24 5.37258 24 12C24 18.6274 18.6274 24 12 24C5.37258 24 0 18.6274 0 12Z" fill="#FEF3F2"/>
<path d="M12.0439 4.83301C12.3723 4.833 12.6511 4.83379 12.8828 4.85449C13.1287 4.87648 13.3584 4.92362 13.5811 5.03906C13.6691 5.08474 13.7535 5.13798 13.833 5.19727C14.0342 5.34729 14.1776 5.53245 14.3047 5.74414C14.4244 5.9436 14.5462 6.19473 14.6895 6.49023L15.0166 7.16699H18C18.2761 7.16699 18.5 7.39085 18.5 7.66699C18.4998 7.94299 18.276 8.16699 18 8.16699H17.4697L17.084 14.4062C17.0326 15.238 16.9918 15.8985 16.9082 16.4258C16.8224 16.9666 16.6848 17.4176 16.4102 17.8115C16.159 18.1716 15.8358 18.4756 15.4609 18.7041C15.0509 18.9539 14.5927 19.063 14.0479 19.1152C13.5165 19.1662 12.8548 19.167 12.0215 19.167H11.9697C11.1352 19.167 10.4725 19.1663 9.94043 19.1152C9.39473 19.0629 8.9358 18.9534 8.52539 18.7031C8.1501 18.4742 7.82632 18.1694 7.5752 17.8086C7.30076 17.4141 7.16423 16.9632 7.0791 16.4219C6.99608 15.8938 6.95556 15.2325 6.90527 14.3994L6.5293 8.16699H6C5.72397 8.16699 5.50018 7.94299 5.5 7.66699C5.5 7.39085 5.72386 7.16699 6 7.16699H9.04688L9.32617 6.55371C9.46587 6.24722 9.58416 5.98707 9.70215 5.78027C9.82736 5.56082 9.97016 5.36816 10.1738 5.21191C10.2541 5.15032 10.3394 5.09537 10.4287 5.04785C10.6554 4.92733 10.89 4.8774 11.1416 4.85449C11.3786 4.83292 11.6643 4.833 12.001 4.83301H12.0439ZM7.90234 14.3135C7.95454 15.1781 7.99171 15.7915 8.06641 16.2666C8.13984 16.7336 8.24326 17.0171 8.39648 17.2373C8.56836 17.4843 8.78999 17.6929 9.04688 17.8496C9.27592 17.9892 9.56561 18.075 10.0361 18.1201C10.5149 18.166 11.1291 18.167 11.9951 18.167C12.8603 18.167 13.4739 18.166 13.9521 18.1201C14.4221 18.075 14.7115 17.99 14.9404 17.8506C15.1972 17.6942 15.4189 17.4858 15.5908 17.2393C15.7441 17.0194 15.8469 16.7358 15.9209 16.2695C15.9962 15.7951 16.0345 15.1828 16.0879 14.3193L16.4678 8.16699H7.53125L7.90234 14.3135ZM13 13.9365C13.2761 13.9365 13.5 14.1604 13.5 14.4365C13.4998 14.7125 13.276 14.9365 13 14.9365H11C10.724 14.9365 10.5002 14.7125 10.5 14.4365C10.5 14.1604 10.7239 13.9365 11 13.9365H13ZM14 11.3232C14.2761 11.3232 14.5 11.5471 14.5 11.8232C14.5 12.0994 14.2761 12.3232 14 12.3232H10C9.72386 12.3232 9.5 12.0994 9.5 11.8232C9.5 11.5471 9.72386 11.3232 10 11.3232H14ZM12.0225 5.83301C11.6586 5.83301 11.4188 5.83364 11.2324 5.85059C11.0555 5.86669 10.9653 5.89513 10.8984 5.93066C10.8578 5.95228 10.8188 5.97783 10.7822 6.00586C10.7222 6.05197 10.6592 6.12226 10.5713 6.27637C10.4785 6.43895 10.3785 6.65701 10.2275 6.98828L10.1455 7.16699H13.9053L13.7988 6.94629C13.6438 6.62654 13.5413 6.41544 13.4473 6.25879C13.3582 6.11045 13.2948 6.04338 13.2354 5.99902C13.1992 5.97206 13.1611 5.94752 13.1211 5.92676C13.0552 5.89257 12.9666 5.86505 12.7939 5.84961C12.612 5.83335 12.3776 5.83301 12.0225 5.83301Z" fill="#D92D20"/>
</svg>
