<svg width="44" height="44" viewBox="0 0 44 44" fill="none" xmlns="http://www.w3.org/2000/svg">
<path d="M0 22C0 9.84974 9.84974 0 22 0C34.1503 0 44 9.84974 44 22C44 34.1503 34.1503 44 22 44C9.84974 44 0 34.1503 0 22Z" fill="#EFF0FE"/>
<path d="M24.5393 30.4092C24.8657 30.1543 25.3371 30.2119 25.5921 30.5381C25.847 30.8644 25.7893 31.3358 25.4632 31.5908C24.5322 32.318 23.3172 32.75 22.0013 32.75C20.6853 32.75 19.4704 32.3181 18.5393 31.5908C18.2131 31.3358 18.1555 30.8644 18.4104 30.5381C18.6655 30.2119 19.1368 30.1543 19.4632 30.4092C20.1244 30.9255 21.0123 31.25 22.0013 31.25C22.9902 31.25 23.8781 30.9256 24.5393 30.4092ZM22.0003 11.25C26.5467 11.25 30.2756 14.8216 30.2757 19.2793C30.2758 20.3065 30.3466 21.0729 30.8284 21.7627C30.9166 21.8872 31.0103 22.0108 31.1126 22.1465C31.1393 22.1819 31.1667 22.2187 31.1946 22.2559C31.3258 22.4305 31.4675 22.6219 31.5999 22.8232C31.8625 23.2227 32.1218 23.7088 32.2112 24.2773C32.5035 26.1368 31.1552 27.324 29.8479 27.8496C25.2056 29.7161 18.7949 29.7162 14.1526 27.8496C12.8454 27.3239 11.4971 26.1367 11.7893 24.2773C11.8787 23.7088 12.138 23.2227 12.4007 22.8232C12.5332 22.6217 12.6756 22.4306 12.8069 22.2559C12.8349 22.2186 12.8623 22.1819 12.889 22.1465C12.9912 22.0108 13.0849 21.8872 13.1731 21.7627C13.6549 21.0729 13.7258 20.3064 13.7259 19.2793C13.7259 14.8216 17.454 11.2501 22.0003 11.25ZM22.0003 12.75C18.2351 12.7501 15.2259 15.6966 15.2259 19.2793C15.2258 20.3319 15.1721 21.5213 14.4007 22.624L14.3977 22.627C14.2948 22.7724 14.1837 22.9203 14.0794 23.0586C14.0544 23.0917 14.0301 23.1244 14.0061 23.1562C13.8777 23.3273 13.7597 23.4876 13.6546 23.6475C13.4418 23.9711 13.3131 24.2479 13.2718 24.5107C13.1388 25.3572 13.6916 26.0476 14.7122 26.458C18.9954 28.1802 25.0052 28.1801 29.2884 26.458C30.3091 26.0476 30.8627 25.3572 30.7298 24.5107C30.6885 24.2479 30.5597 23.9711 30.347 23.6475C30.2418 23.4875 30.1239 23.3274 29.9954 23.1562C29.9713 23.1242 29.9462 23.0918 29.9212 23.0586C29.8169 22.9203 29.7058 22.7724 29.6028 22.627L29.5999 22.624C28.8286 21.5213 28.7758 20.3318 28.7757 19.2793C28.7756 15.6965 25.7655 12.75 22.0003 12.75Z" fill="#1C1C1C"/>
</svg>
