<svg width="20" height="20" viewBox="0 0 20 20" fill="none" xmlns="http://www.w3.org/2000/svg">
<path d="M12.3438 14.058C12.6674 14.058 12.9297 13.7957 12.9297 13.472C12.9297 13.1484 12.6674 12.8861 12.3438 12.8861C12.0201 12.8861 11.7578 13.1484 11.7578 13.472C11.7578 13.7957 12.0201 14.058 12.3438 14.058Z" fill="#315EA1"/>
<path d="M7.65625 7.02673C7.97985 7.02673 8.24219 6.7644 8.24219 6.4408C8.24219 6.11719 7.97985 5.85486 7.65625 5.85486C7.33265 5.85486 7.07031 6.11719 7.07031 6.4408C7.07031 6.7644 7.33265 7.02673 7.65625 7.02673Z" fill="#315EA1"/>
<path d="M19.0855 8.63484C18.4206 8.19996 18.1711 7.26785 18.5287 6.55773C18.8417 5.93805 18.8749 5.4059 18.6266 4.97617C18.3782 4.54645 17.901 4.30898 17.2075 4.26949C16.4139 4.22484 15.7318 3.54277 15.6871 2.74855C15.6477 2.05563 15.4102 1.5784 14.9805 1.33008C14.5507 1.08348 14.0186 1.11551 13.3989 1.42793C12.6888 1.7827 11.7561 1.53609 11.3212 0.871172C10.5602 -0.290391 9.43984 -0.290391 8.67883 0.871172C8.2434 1.53551 7.31184 1.78441 6.60117 1.42793C5.9809 1.11551 5.44875 1.08348 5.01961 1.33008C4.58988 1.5784 4.35242 2.05563 4.31293 2.74914C4.26828 3.54277 3.58621 4.22484 2.79199 4.26949C2.09906 4.30898 1.62184 4.54645 1.37352 4.97617C1.1252 5.4059 1.15836 5.93805 1.47137 6.55773C1.82898 7.26785 1.57953 8.19996 0.914023 8.63539C0.33375 9.01652 0 9.46055 0 9.95664C0 10.4527 0.33375 10.8973 0.914531 11.2779C1.57941 11.7133 1.82891 12.6454 1.47129 13.3555C1.15828 13.9752 1.12512 14.5073 1.37344 14.9371C1.62176 15.3668 2.09898 15.6043 2.7925 15.6438C3.58613 15.6884 4.2682 16.3705 4.31285 17.1647C4.35234 17.8576 4.5898 18.3348 5.01953 18.5832C5.44984 18.8309 5.98082 18.7977 6.60109 18.4853C7.31121 18.1282 8.24273 18.3766 8.67875 19.0427C9.05984 19.6229 9.50387 19.9957 9.99996 19.9957C10.4961 19.9957 10.9401 19.6229 11.3218 19.0421C11.7561 18.376 12.6865 18.1254 13.3989 18.4853C14.0186 18.7977 14.5524 18.8309 14.9804 18.5832C15.4102 18.3348 15.6476 17.8576 15.6871 17.1641C15.7318 16.3705 16.4138 15.6884 17.208 15.6438C17.901 15.6043 18.3782 15.3668 18.6265 14.9371C18.8748 14.5073 18.8417 13.9752 18.5287 13.3555C18.1711 12.6454 18.4205 11.7133 19.0854 11.2779C19.6663 10.8973 20 10.4527 20 9.95664C20 9.46055 19.6663 9.01652 19.0855 8.63484ZM7.65625 4.6832C8.62555 4.6832 9.41406 5.47172 9.41406 6.44102C9.41406 7.41031 8.62555 8.19883 7.65625 8.19883C6.68695 8.19883 5.89844 7.41031 5.89844 6.44102C5.89844 5.47172 6.68695 4.6832 7.65625 4.6832ZM6.95301 14.9955L6.01574 14.2928L13.047 4.91781L13.9843 5.62047L6.95301 14.9955ZM12.3438 15.2301C11.3745 15.2301 10.5859 14.4416 10.5859 13.4723C10.5859 12.503 11.3745 11.7145 12.3438 11.7145C13.313 11.7145 14.1016 12.503 14.1016 13.4723C14.1016 14.4416 13.313 15.2301 12.3438 15.2301Z" fill="#315EA1"/>
</svg>
