<svg width="20" height="20" viewBox="0 0 20 20" fill="none" xmlns="http://www.w3.org/2000/svg">
<path d="M12.9921 18.0499C12.8337 18.0499 12.6754 17.9916 12.5504 17.8666C12.3087 17.6249 12.3087 17.2249 12.5504 16.9833L14.9004 14.6333C15.1421 14.3916 15.5421 14.3916 15.7837 14.6333C16.0254 14.8749 16.0254 15.2749 15.7837 15.5166L13.4337 17.8666C13.3087 17.9916 13.1504 18.0499 12.9921 18.0499Z" fill="#CA0000"/>
<path d="M15.3421 18.0499C15.1837 18.0499 15.0254 17.9916 14.9004 17.8666L12.5504 15.5166C12.3087 15.2749 12.3087 14.8749 12.5504 14.6333C12.7921 14.3916 13.1921 14.3916 13.4337 14.6333L15.7837 16.9833C16.0254 17.2249 16.0254 17.6249 15.7837 17.8666C15.6587 17.9916 15.5004 18.0499 15.3421 18.0499Z" fill="#CA0000"/>
<path d="M10.1331 9.68329C10.1081 9.68329 10.0915 9.68329 10.0665 9.68329C10.0248 9.67496 9.96647 9.67496 9.91647 9.68329C7.4998 9.60829 5.6748 7.70829 5.6748 5.36663C5.6748 2.98329 7.61647 1.04163 9.9998 1.04163C12.3831 1.04163 14.3248 2.98329 14.3248 5.36663C14.3165 7.70829 12.4831 9.60829 10.1581 9.68329C10.1498 9.68329 10.1415 9.68329 10.1331 9.68329ZM9.9998 2.29163C8.30814 2.29163 6.92481 3.67496 6.92481 5.36663C6.92481 7.03329 8.2248 8.37496 9.88314 8.43329C9.93314 8.42496 10.0415 8.42496 10.1498 8.43329C11.7831 8.35829 13.0665 7.01663 13.0748 5.36663C13.0748 3.67496 11.6915 2.29163 9.9998 2.29163Z" fill="#CA0000"/>
<path d="M10.0003 18.7999C8.30026 18.7999 6.69193 18.3583 5.47526 17.5416C4.31693 16.7666 3.68359 15.7083 3.68359 14.5666C3.68359 13.4249 4.32526 12.3749 5.47526 11.6083C7.96693 9.94161 12.0169 9.94161 14.5086 11.6083C14.7919 11.7999 14.8753 12.1916 14.6836 12.4749C14.4919 12.7666 14.1003 12.8416 13.8169 12.6499C11.7419 11.2666 8.24193 11.2666 6.16693 12.6499C5.36693 13.1833 4.93359 13.8583 4.93359 14.5666C4.93359 15.2749 5.37526 15.9666 6.16693 16.4999C7.17526 17.1749 8.53359 17.5416 9.99193 17.5416C10.3336 17.5416 10.6169 17.8249 10.6169 18.1666C10.6169 18.5083 10.3419 18.7999 10.0003 18.7999Z" fill="#CA0000"/>
</svg>
