<svg width="20" height="20" viewBox="0 0 20 20" fill="none" xmlns="http://www.w3.org/2000/svg">
<path d="M9.16699 1.04199C4.67981 1.04215 1.04199 4.67977 1.04199 9.16699C1.04217 13.6541 4.67992 17.2918 9.16699 17.292C11.1857 17.292 13.0312 16.5536 14.4521 15.335L17.8916 18.7754C18.1357 19.0195 18.5323 19.0195 18.7764 18.7754C19.0202 18.5314 19.02 18.1356 18.7764 17.8916L15.3369 14.4512C16.555 13.0304 17.2919 11.1852 17.292 9.16699C17.292 4.67968 13.6543 1.04199 9.16699 1.04199ZM9.16699 2.29199C12.964 2.29199 16.042 5.37003 16.042 9.16699C16.0418 12.9638 12.9638 16.042 9.16699 16.042C5.37028 16.0418 2.29217 12.9637 2.29199 9.16699C2.29199 5.37013 5.37017 2.29215 9.16699 2.29199Z" fill="#261E48"/>
</svg>
