<svg width="20" height="20" viewBox="0 0 20 20" fill="none" xmlns="http://www.w3.org/2000/svg">
<path fill-rule="evenodd" clip-rule="evenodd" d="M8.28254 2.70837H11.718C13.2535 2.70836 14.4694 2.70835 15.4209 2.83596C16.3999 2.96725 17.1921 3.24383 17.817 3.86719C18.675 4.72302 18.8835 5.90158 18.9493 7.46501L18.9501 7.48515C18.9559 7.62169 18.9618 7.76111 18.9566 7.87853C18.9511 8.00344 18.9318 8.18383 18.832 8.36201C18.763 8.48532 18.6706 8.57055 18.609 8.62158C18.5422 8.6769 18.468 8.72704 18.3973 8.77165C18.2609 8.85772 18.0763 8.96076 17.86 9.08156L17.8441 9.09043C17.5227 9.26993 17.3086 9.61085 17.3086 10C17.3086 10.3892 17.5227 10.7302 17.8441 10.9096L17.8601 10.9186C18.0764 11.0393 18.2609 11.1424 18.3973 11.2284C18.468 11.273 18.5422 11.3232 18.609 11.3785C18.6706 11.4295 18.763 11.5148 18.832 11.6381C18.9318 11.8163 18.9511 11.9966 18.9566 12.1215C18.9618 12.239 18.9559 12.3784 18.9501 12.5149L18.9493 12.5351C18.8835 14.0985 18.675 15.2771 17.817 16.1329C17.1921 16.7562 16.3999 17.0328 15.4209 17.1641C14.4694 17.2917 13.2535 17.2917 11.718 17.2917H8.28254C6.74708 17.2917 5.53121 17.2917 4.5797 17.1641C3.6007 17.0328 2.80845 16.7562 2.18354 16.1329C1.32558 15.2771 1.11704 14.0985 1.05131 12.5351L1.05046 12.5149C1.0447 12.3784 1.03881 12.239 1.04398 12.1216C1.04947 11.9966 1.06879 11.8163 1.16853 11.6381C1.23756 11.5148 1.33 11.4295 1.39159 11.3785C1.45837 11.3232 1.53255 11.273 1.60326 11.2284C1.7397 11.1424 1.92423 11.0393 2.14055 10.9185L2.15645 10.9096C2.47787 10.7302 2.69201 10.3892 2.69201 10C2.69201 9.61085 2.47787 9.26993 2.15645 9.09043L2.14053 9.08154C1.92422 8.96075 1.7397 8.85771 1.60326 8.77165C1.53255 8.72704 1.45837 8.6769 1.39159 8.62158C1.32999 8.57055 1.23756 8.48532 1.16853 8.36201C1.06879 8.18383 1.04947 8.00344 1.04398 7.87853C1.03881 7.76111 1.0447 7.6217 1.05046 7.48516C1.05075 7.47844 1.05103 7.47172 1.05131 7.46501C1.11704 5.90158 1.32558 4.72302 2.18354 3.86719C2.80845 3.24383 3.6007 2.96725 4.5797 2.83596C5.53121 2.70835 6.74708 2.70836 8.28254 2.70837ZM17.706 12.1536C17.706 12.1536 17.7062 12.1544 17.7064 12.1563L17.706 12.1536ZM17.708 12.2717C17.7079 12.2772 17.7078 12.2828 17.7076 12.2887C17.7062 12.342 17.7037 12.404 17.7004 12.4826C17.6353 14.0293 17.4241 14.7593 16.9342 15.2479C16.5804 15.6009 16.0957 15.8124 15.2547 15.9252C14.3959 16.0404 13.264 16.0417 11.6711 16.0417H8.32946C6.73657 16.0417 5.60463 16.0404 4.74585 15.9252C3.9049 15.8124 3.42015 15.6009 3.06632 15.2479C2.5765 14.7593 2.36524 14.0293 2.30021 12.4826C2.29691 12.404 2.29432 12.342 2.29295 12.2887C2.29279 12.2828 2.29266 12.2772 2.29255 12.2717C2.39643 12.2076 2.54564 12.124 2.76591 12.001C3.46578 11.6102 3.94201 10.8614 3.94201 10C3.94201 9.1387 3.46578 8.38991 2.76591 7.99908C2.54563 7.87606 2.39643 7.79252 2.29255 7.72838C2.29266 7.72292 2.29279 7.71725 2.29295 7.71135C2.29432 7.65805 2.29691 7.59611 2.30021 7.51752C2.36524 5.97082 2.5765 5.24078 3.06632 4.75218C3.42015 4.39923 3.9049 4.18765 4.74585 4.07487C5.60463 3.9597 6.73657 3.95837 8.32946 3.95837H11.6711C13.264 3.95837 14.3959 3.9597 15.2547 4.07487C16.0957 4.18765 16.5804 4.39923 16.9342 4.75218C17.4241 5.24078 17.6353 5.97082 17.7004 7.51752C17.7037 7.59611 17.7062 7.65805 17.7076 7.71135C17.7078 7.71725 17.7079 7.72292 17.708 7.72838C17.6041 7.79252 17.4549 7.87607 17.2347 7.99908C16.5348 8.38991 16.0586 9.1387 16.0586 10C16.0586 10.8614 16.5348 11.6102 17.2347 12.001C17.4549 12.124 17.6041 12.2076 17.708 12.2717ZM17.8116 7.65897L17.8106 7.65975C17.8141 7.65653 17.8148 7.65627 17.8116 7.65897ZM17.706 7.84653C17.706 7.84653 17.7061 7.84555 17.7064 7.84377L17.706 7.84653ZM2.18902 7.65897C2.18576 7.65628 2.18644 7.65653 2.18996 7.65975L2.18902 7.65897ZM2.29419 7.84377C2.29448 7.84554 2.29457 7.84653 2.29457 7.84653L2.29419 7.84377ZM2.29457 12.1536C2.29457 12.1536 2.29448 12.1545 2.29419 12.1563L2.29457 12.1536ZM2.18996 12.3403C2.18644 12.3436 2.18576 12.3438 2.18901 12.3411L2.18996 12.3403ZM17.8106 12.3403L17.8116 12.3411C17.8148 12.3438 17.8141 12.3436 17.8106 12.3403ZM12.9422 7.0581C13.1863 7.30218 13.1863 7.69791 12.9422 7.94198L7.94222 12.942C7.69815 13.1861 7.30242 13.1861 7.05834 12.942C6.81426 12.6979 6.81426 12.3022 7.05834 12.0581L12.0583 7.0581C12.3024 6.81402 12.6981 6.81402 12.9422 7.0581Z" fill="#2A2A28"/>
<path d="M12.9169 12.0834C12.9169 12.5436 12.5439 12.9167 12.0836 12.9167C11.6234 12.9167 11.2503 12.5436 11.2503 12.0834C11.2503 11.6231 11.6234 11.25 12.0836 11.25C12.5439 11.25 12.9169 11.6231 12.9169 12.0834Z" fill="#2A2A28"/>
<path d="M8.75028 7.91671C8.75028 8.37695 8.37719 8.75004 7.91695 8.75004C7.45671 8.75004 7.08361 8.37695 7.08361 7.91671C7.08361 7.45647 7.45671 7.08337 7.91695 7.08337C8.37719 7.08337 8.75028 7.45647 8.75028 7.91671Z" fill="#2A2A28"/>
</svg>
