<svg width="17" height="17" viewBox="0 0 17 17" fill="none" xmlns="http://www.w3.org/2000/svg">
<path d="M15.8141 0.847441C15.0891 0.122441 14.0641 -0.160892 13.0724 0.089108L4.90577 2.13077C3.53077 2.47244 2.47244 3.53911 2.13077 4.90577L0.089108 13.0808C-0.160892 14.0724 0.122441 15.0974 0.847441 15.8224C1.39744 16.3641 2.12244 16.6641 2.87244 16.6641C3.10577 16.6641 3.34744 16.6391 3.58077 16.5724L11.7558 14.5308C13.1224 14.1891 14.1891 13.1308 14.5308 11.7558L16.5724 3.58078C16.8224 2.58911 16.5391 1.56411 15.8141 0.847441ZM8.33077 11.5641C6.54744 11.5641 5.09744 10.1141 5.09744 8.33078C5.09744 6.54744 6.54744 5.09744 8.33077 5.09744C10.1141 5.09744 11.5641 6.54744 11.5641 8.33078C11.5641 10.1141 10.1141 11.5641 8.33077 11.5641Z" fill="#315EA1"/>
</svg>
